<svg width="84" height="81" viewBox="0 0 84 81" fill="none" xmlns="http://www.w3.org/2000/svg">
<path d="M64.1234 32.9939C63.9571 31.2961 64.0843 26.6809 68.7667 20.2632C69.1209 19.7789 69.0567 19.1257 68.6168 18.7105C66.7078 16.908 65.5259 15.7705 64.6968 14.9746C63.6068 13.9251 63.1091 13.4469 62.3807 12.8233C61.8944 12.4106 61.1585 12.4034 60.6671 12.808C52.5056 19.5136 43.4406 33.3698 44.7524 50.3458C45.521 60.3137 53.2213 67.5489 63.0612 67.5489C73.1593 67.5489 81.375 59.7927 81.375 50.2577C81.375 41.0594 73.729 33.5162 64.1234 32.9939ZM63.0612 65.1122C54.6111 65.1122 47.9945 58.8277 47.3255 50.1697C47.3255 50.1697 47.3255 50.1697 47.3255 50.1685C45.8499 31.076 57.8697 18.6748 61.5012 15.391C61.8553 15.7206 62.2598 16.1084 62.8558 16.6818C63.574 17.3719 64.557 18.3166 66.0438 19.7254C60.3596 27.9944 61.432 33.8862 61.9019 34.731C62.125 35.1319 62.5824 35.402 63.0612 35.402C71.7368 35.402 78.7944 42.066 78.7944 50.2577C78.7944 58.4482 71.7368 65.1122 63.0612 65.1122Z" fill="#E90018"/>
<path d="M22.1246 32.9937C21.957 31.3007 22.0804 26.689 26.7675 20.2629C27.1203 19.7786 27.0572 19.1254 26.6175 18.7102C24.7124 16.9112 23.5319 15.775 22.7041 14.979C21.6106 13.9272 21.1115 13.4477 20.3833 12.823C19.8969 12.4103 19.1611 12.4043 18.6698 12.8065C10.5091 19.5122 1.44369 33.3661 2.75272 50.3457V50.3469C3.52387 60.3137 11.2246 67.5489 21.0636 67.5489C31.1609 67.5489 39.3759 59.7926 39.3759 50.2576C39.3759 41.0582 31.7304 33.5137 22.1246 32.9937ZM21.0636 65.1122C12.6157 65.1122 5.99588 58.8277 5.32562 50.1684V50.1696C3.85403 31.0722 15.8727 18.6733 19.5038 15.3907C19.8591 15.7203 20.2649 16.1105 20.8621 16.6852C21.5789 17.3753 22.5605 18.3188 24.0448 19.7251C18.3611 27.9954 19.4334 33.886 19.9032 34.7296C20.1263 35.1305 20.5849 35.4019 21.0636 35.4019C29.7385 35.4019 36.7955 42.0659 36.7955 50.2576C36.7955 58.4482 29.7385 65.1122 21.0636 65.1122Z" fill="#E90018"/>
</svg>
